<?xml version="1.0" standalone="no"?>
<!DOCTYPE svg PUBLIC "-//W3C//DTD SVG 20010904//EN"
 "http://www.w3.org/TR/2001/REC-SVG-20010904/DTD/svg10.dtd">
<svg version="1.0" xmlns="http://www.w3.org/2000/svg"
 width="501.000000pt" height="498.000000pt" viewBox="0 0 501.000000 498.000000"
 preserveAspectRatio="xMidYMid meet">

<g transform="translate(0.000000,498.000000) scale(0.100000,-0.100000)"
fill="#000000" stroke="none">
<path d="M2260 4650 c-190 -19 -422 -78 -614 -156 -742 -303 -1267 -998 -1356
-1799 -23 -212 -7 -524 40 -733 79 -358 282 -746 524 -1001 155 -163 252 -246
413 -353 270 -181 547 -287 898 -344 164 -27 496 -25 665 4 493 84 907 302
1245 653 123 128 153 165 245 303 137 203 246 449 304 681 54 214 60 274 60
545 0 272 -6 333 -60 544 -34 137 -67 230 -130 369 -105 232 -233 421 -411
607 -342 357 -752 576 -1238 660 -139 24 -435 34 -585 20z m405 -70 c503 -45
937 -243 1299 -590 743 -714 872 -1846 308 -2710 -126 -194 -269 -348 -487
-529 -53 -43 -235 -157 -327 -204 -239 -122 -462 -190 -733 -222 -278 -32
-559 -9 -825 69 -587 171 -1057 561 -1329 1104 -329 655 -290 1460 101 2085
115 185 219 305 436 504 106 98 376 264 532 327 36 15 74 31 85 36 21 10 144
48 235 73 207 57 471 78 705 57z"/>
<path d="M2225 4528 c-210 -32 -381 -77 -530 -139 -731 -303 -1217 -962 -1296
-1759 -20 -198 5 -491 60 -710 27 -107 96 -290 151 -398 323 -641 922 -1064
1630 -1152 109 -13 386 -13 487 0 346 46 641 155 917 340 502 335 820 840 911
1445 23 148 23 442 0 590 -80 527 -342 995 -740 1320 -305 248 -640 396 -1029
455 -140 22 -446 26 -561 8z m605 -38 c349 -63 624 -182 899 -390 363 -276
625 -656 744 -1085 60 -215 71 -301 71 -565 0 -260 -6 -312 -60 -524 -67 -268
-202 -538 -378 -757 -204 -255 -437 -442 -720 -579 -272 -131 -521 -194 -821
-207 -559 -24 -1116 189 -1516 578 -322 314 -523 695 -605 1144 -22 121 -30
445 -15 572 26 208 66 369 138 548 55 137 133 283 212 395 135 194 282 346
466 484 135 101 198 139 356 215 215 103 446 168 684 192 133 13 416 2 545
-21z"/>
<path d="M2390 4381 c0 -5 7 -11 15 -15 12 -4 15 -24 15 -91 0 -67 -3 -87 -15
-91 -30 -12 -14 -24 30 -24 48 0 55 6 29 25 -12 8 -15 20 -9 43 3 18 10 32 13
32 4 0 21 -22 39 -49 31 -48 32 -49 95 -53 68 -6 83 -2 56 13 -14 8 -15 14 -6
34 11 24 23 26 76 9 14 -4 17 -54 2 -54 -5 0 -10 -4 -10 -9 0 -10 78 -26 87
-17 3 3 -1 11 -9 19 -8 8 -24 60 -37 116 -13 59 -27 101 -34 101 -7 0 -32 -39
-56 -85 -25 -47 -50 -90 -57 -96 -18 -15 -49 -3 -62 24 -7 12 -17 30 -24 39
-11 15 -9 20 10 33 30 21 30 69 0 89 -24 17 -148 23 -148 7z m123 -33 c15 -23
-6 -68 -33 -68 -17 0 -20 7 -20 46 0 41 2 45 21 42 12 -2 27 -11 32 -20z m207
-62 c0 -8 3 -21 6 -30 4 -11 0 -16 -14 -16 -28 0 -35 15 -20 40 15 23 28 26
28 6z"/>
<path d="M2250 4375 c-8 -2 -32 -6 -52 -10 -36 -6 -54 -25 -25 -25 10 0 18
-27 27 -87 11 -79 11 -87 -4 -99 -27 -19 -6 -22 69 -8 39 7 78 13 88 13 13 1
17 10 17 36 0 42 -14 45 -32 8 -10 -22 -21 -29 -49 -31 -34 -3 -37 -1 -43 29
-8 44 -8 46 9 53 8 3 24 -4 35 -16 l20 -22 0 42 c0 42 -16 65 -26 38 -8 -20
-36 -29 -46 -14 -4 7 -8 25 -8 40 0 35 41 49 69 24 24 -22 31 -20 31 9 0 22
-4 25 -32 24 -18 -1 -40 -3 -48 -4z"/>
<path d="M2847 4343 c-4 -3 -7 -20 -7 -36 l0 -30 24 23 c14 12 31 20 39 17 13
-5 13 -15 1 -78 -19 -101 -23 -109 -46 -109 -32 0 -16 -10 41 -25 54 -14 60
-12 37 14 -20 23 11 174 37 179 12 2 22 -7 31 -29 14 -33 19 -31 29 12 6 25 5
27 -71 44 -42 9 -84 19 -93 21 -8 2 -18 1 -22 -3z"/>
<path d="M1965 4318 c-16 -6 -37 -13 -45 -15 -12 -4 -10 -7 6 -13 15 -6 24
-23 32 -62 22 -104 25 -128 13 -128 -6 0 -11 -5 -11 -11 0 -6 8 -8 18 -5 9 3
37 10 61 16 24 6 57 24 73 40 23 24 28 37 28 80 0 45 -4 56 -31 81 -34 31 -84
37 -144 17z m106 -37 c24 -25 29 -38 29 -80 0 -40 -4 -53 -22 -65 -32 -23 -57
-20 -63 7 -32 145 -33 152 -22 159 23 15 49 8 78 -21z"/>
<path d="M3070 4282 c0 -4 4 -12 10 -18 6 -6 0 -38 -17 -91 -21 -64 -32 -83
-47 -86 -17 -3 -14 -7 16 -20 21 -9 45 -17 54 -17 16 0 16 2 2 18 -14 15 -13
25 15 100 20 57 34 81 43 78 7 -3 16 -1 19 3 3 5 -16 16 -42 25 -54 19 -53 18
-53 8z"/>
<path d="M1775 4250 c-33 -16 -66 -30 -72 -30 -18 0 -16 -20 2 -20 17 0 36
-35 61 -113 15 -50 16 -60 4 -67 -8 -5 -12 -12 -8 -15 5 -6 144 50 162 66 10
9 -2 69 -15 69 -5 0 -9 -11 -9 -24 0 -42 -62 -84 -81 -55 -31 48 -16 95 22 71
29 -18 32 -11 14 31 -17 42 -32 48 -37 15 -5 -36 -34 -34 -47 4 -10 28 -9 35
6 45 21 16 45 17 61 1 17 -17 26 -3 18 27 -8 30 -7 31 -81 -5z"/>
<path d="M3180 4241 c0 -6 5 -13 10 -16 6 -4 8 -48 3 -121 -3 -68 -2 -114 3
-114 5 0 43 34 84 75 41 41 83 75 93 75 24 0 13 16 -25 36 -34 18 -47 12 -28
-11 12 -14 6 -23 -38 -68 l-52 -52 0 74 c0 64 2 73 20 78 25 7 19 17 -22 37
-36 18 -48 20 -48 7z"/>
<path d="M1570 4145 c-65 -40 -72 -46 -52 -52 32 -8 99 -139 84 -164 -6 -9 -8
-19 -6 -22 8 -8 94 46 88 55 -3 4 -10 5 -17 2 -12 -4 -47 43 -47 64 0 17 40
25 55 12 20 -17 19 0 -2 44 -17 36 -33 39 -33 6 0 -11 -8 -24 -18 -29 -16 -8
-21 -4 -35 24 -16 33 -16 35 6 50 26 18 49 19 65 3 19 -19 27 0 12 27 -7 14
-16 25 -19 25 -3 0 -40 -21 -81 -45z"/>
<path d="M3400 4025 c-41 -36 -83 -65 -92 -65 -26 0 -22 -13 11 -33 38 -22 43
-22 35 7 -8 35 20 48 57 27 37 -21 41 -68 7 -73 -20 -3 -18 -7 20 -31 44 -29
65 -30 42 -3 -9 12 -9 31 -2 83 22 142 23 153 10 152 -7 0 -47 -29 -88 -64z
m47 -52 c-3 -2 -15 1 -27 7 l-22 12 24 25 23 25 3 -32 c2 -18 1 -34 -1 -37z"/>
<path d="M2295 4053 c-373 -47 -726 -225 -979 -494 -226 -240 -366 -520 -421
-843 -22 -130 -22 -406 0 -531 114 -654 596 -1163 1240 -1309 353 -80 761 -28
1083 139 432 223 741 626 841 1097 49 228 49 449 0 677 -83 389 -294 714 -624
962 -205 154 -479 264 -748 299 -74 9 -326 12 -392 3z m405 -28 c457 -73 817
-291 1077 -653 71 -99 179 -310 217 -423 57 -172 70 -267 71 -494 0 -181 -3
-225 -23 -319 -32 -150 -63 -239 -140 -395 -173 -354 -466 -623 -837 -770
-433 -171 -929 -140 -1337 82 -409 223 -706 622 -798 1069 -71 349 -30 689
121 1013 163 351 483 649 854 794 251 99 550 135 795 96z"/>
<path d="M2410 4004 c-19 -2 -76 -8 -126 -14 -351 -38 -712 -228 -955 -501
-404 -455 -509 -1088 -274 -1649 207 -495 696 -867 1220 -928 171 -21 209 -22
319 -12 234 22 383 62 581 160 135 66 206 114 325 215 198 169 357 401 448
655 41 113 59 192 77 329 19 146 19 237 -1 386 -67 513 -383 965 -829 1184
-176 87 -210 99 -375 140 -92 22 -336 43 -410 35z m308 -132 c37 -4 40 -12 11
-30 -18 -12 -20 -20 -15 -55 6 -39 6 -40 -11 -25 -32 27 -40 28 -68 6 l-27
-21 7 41 c6 35 4 43 -14 54 -29 18 -26 28 8 28 25 0 32 6 43 36 l12 35 12 -33
c9 -27 17 -34 42 -36z m-381 28 c5 -27 9 -30 42 -30 l36 0 -28 -23 c-26 -20
-27 -25 -17 -51 13 -36 6 -44 -20 -21 -18 16 -23 17 -48 4 -15 -7 -30 -15 -34
-17 -4 -2 -2 11 4 29 10 30 9 34 -18 56 l-29 23 37 0 c32 0 37 3 43 30 4 17
11 30 16 30 5 0 12 -13 16 -30z m-266 -90 l34 -5 -28 -20 c-25 -19 -27 -23
-17 -49 14 -37 6 -44 -21 -20 -20 18 -22 18 -50 1 l-30 -17 6 34 c6 28 3 36
-20 55 l-28 21 36 0 c32 0 37 4 48 38 l12 37 12 -35 c10 -29 18 -36 46 -40z
m933 20 c5 -27 9 -30 43 -30 l38 -1 -28 -24 c-24 -22 -27 -29 -21 -62 l7 -38
-26 24 -26 23 -30 -22 c-17 -12 -31 -20 -31 -18 0 2 4 18 9 35 8 29 6 35 -15
52 -32 25 -30 31 10 31 30 0 35 4 41 30 4 17 10 30 15 30 4 0 10 -13 14 -30z
m-1289 -120 c6 -26 11 -30 41 -30 l35 0 -26 -22 c-23 -20 -24 -27 -16 -56 6
-18 7 -32 3 -30 -4 2 -19 10 -34 17 -24 12 -30 12 -46 -2 -27 -25 -32 -21 -20
14 10 28 8 33 -18 55 l-29 23 37 1 c34 0 38 3 44 35 7 40 20 38 29 -5z m1580
-30 c6 -25 11 -30 38 -30 l30 0 -21 -23 c-17 -18 -21 -31 -16 -56 l7 -32 -31
18 c-29 17 -31 17 -51 -1 -27 -24 -33 -18 -21 22 8 29 6 34 -18 50 l-26 17 34
5 c28 4 36 11 44 37 10 38 22 35 31 -7z m-1841 -180 c5 -27 9 -30 43 -30 l38
-1 -29 -23 c-27 -22 -28 -26 -17 -56 15 -44 15 -44 -15 -21 -32 25 -42 26 -66
4 -24 -21 -31 -13 -18 22 10 26 8 31 -17 51 l-28 23 36 1 c32 0 37 3 43 30 3
17 10 30 15 30 4 0 11 -13 15 -30z m1251 -40 l17 -50 51 0 52 -1 -25 -20 c-14
-12 -33 -27 -42 -34 -17 -11 -17 -15 -2 -59 9 -26 14 -49 12 -52 -3 -2 -22 9
-43 26 l-38 30 -40 -30 c-22 -16 -42 -28 -44 -26 -2 1 4 22 12 46 8 23 15 45
15 49 0 3 -19 20 -41 36 l-41 30 53 5 53 5 14 48 c7 26 15 47 17 47 2 0 11
-22 20 -50z m889 -20 l31 -1 -27 -20 c-23 -17 -26 -24 -18 -45 16 -41 12 -47
-19 -25 -29 21 -29 21 -54 1 -32 -25 -41 -25 -27 -1 16 30 12 51 -12 72 l-23
18 32 1 c27 0 34 5 39 28 11 45 16 47 32 8 12 -31 19 -36 46 -36z m-2352 -235
c2 -14 12 -21 36 -23 37 -4 41 -15 10 -36 -19 -14 -20 -19 -11 -51 13 -41 10
-42 -24 -15 -25 20 -25 20 -54 -1 -31 -22 -35 -16 -19 25 8 21 5 28 -15 45
-33 25 -31 31 9 31 30 0 34 4 40 32 7 33 21 29 28 -7z m1292 -117 c32 -62 76
-144 96 -183 46 -86 533 -1013 584 -1109 19 -38 35 -71 33 -72 -7 -6 -1567
-15 -1567 -9 0 7 137 271 150 290 4 6 42 78 85 160 43 83 122 231 175 330 53
99 128 239 166 310 37 72 88 166 111 210 24 44 56 104 70 133 15 28 30 52 33
52 3 0 32 -51 64 -112z m1216 50 c0 -14 9 -18 41 -18 l41 0 -31 -26 c-26 -21
-29 -29 -21 -50 16 -41 12 -46 -20 -23 -28 21 -31 21 -48 6 -27 -25 -34 -21
-27 15 6 27 3 35 -21 55 l-29 23 37 0 c32 0 37 4 47 33 9 25 14 29 21 17 5 -8
10 -23 10 -32z m-1698 -4 c22 -11 33 -13 41 -5 28 28 37 11 37 -69 0 -97 -15
-105 -51 -28 -35 75 -96 106 -152 77 -30 -16 -37 -28 -37 -70 0 -46 17 -61
120 -104 94 -39 125 -63 140 -111 13 -38 0 -97 -28 -130 -45 -54 -145 -73
-231 -44 -32 10 -44 11 -53 2 -30 -30 -38 -13 -38 79 0 104 9 110 51 34 39
-70 73 -95 132 -95 79 0 117 55 85 125 -11 25 -83 66 -141 80 -15 4 -46 24
-69 45 -40 35 -43 41 -43 88 0 59 24 98 76 124 42 22 120 23 161 2z m1114 -13
c96 -44 81 -187 -22 -221 -19 -7 -34 -14 -34 -17 0 -12 142 -182 165 -197 13
-9 33 -16 45 -16 11 0 20 -7 20 -15 0 -12 -15 -15 -75 -15 l-74 0 -69 93 c-93
123 -106 137 -131 137 -21 0 -22 -3 -19 -97 l3 -98 33 -3 c20 -2 32 -9 32 -18
0 -11 -22 -14 -115 -14 -96 0 -115 3 -115 15 0 10 10 15 29 15 17 0 31 6 35
16 3 9 6 102 6 208 0 203 -3 216 -47 216 -14 0 -23 6 -23 15 0 25 300 21 356
-4z m-1996 -279 l33 -4 -27 -21 c-25 -20 -26 -25 -16 -51 14 -38 5 -45 -23
-17 l-24 21 -25 -20 c-35 -27 -39 -25 -26 12 10 27 8 33 -10 49 -29 23 -28 29
8 29 17 0 30 4 30 9 0 5 5 22 11 38 l11 28 12 -35 c11 -29 18 -36 46 -38z
m2682 -17 c2 -15 13 -21 43 -25 l39 -5 -28 -18 c-24 -16 -27 -23 -21 -53 7
-38 0 -42 -26 -18 -17 15 -20 15 -45 0 -32 -21 -38 -17 -24 18 9 24 6 30 -18
51 l-27 24 33 1 c28 0 35 5 44 31 11 31 23 29 30 -6z m-2778 -307 c4 -12 16
-18 38 -18 l33 -1 -27 -20 c-23 -17 -25 -23 -17 -51 11 -40 8 -43 -22 -19 -23
19 -24 19 -51 -1 -27 -18 -28 -18 -28 -1 0 10 4 24 9 32 6 10 1 21 -18 37
l-26 23 30 1 c27 0 33 5 45 37 14 40 16 38 34 -19z m2817 -8 c10 -26 16 -30
47 -30 l37 -1 -29 -23 c-29 -24 -30 -33 -10 -80 7 -18 5 -18 -25 3 l-33 24
-29 -22 c-33 -25 -33 -25 -18 19 11 30 10 34 -17 56 l-29 23 36 1 c32 0 37 3
43 30 3 17 8 30 11 30 3 0 11 -13 16 -30z m-2760 -340 c9 -24 17 -30 40 -30
35 0 37 -12 7 -32 -20 -14 -21 -18 -11 -51 12 -39 7 -40 -29 -9 -15 12 -20 12
-47 -8 -33 -23 -37 -17 -21 24 8 21 5 28 -15 45 -33 25 -31 31 9 31 29 0 34 4
40 30 3 17 8 30 11 30 3 0 11 -13 16 -30z m2704 -30 c4 -20 13 -30 25 -30 43
0 50 -11 22 -35 -24 -21 -25 -25 -14 -50 17 -37 7 -43 -24 -14 -16 15 -28 20
-32 13 -4 -6 -17 -16 -29 -23 -21 -11 -22 -10 -11 21 10 28 9 33 -16 55 l-27
23 25 0 c29 0 56 24 56 51 0 30 18 22 25 -11z m-140 -310 c6 -26 11 -30 41
-30 41 0 42 -4 8 -33 -22 -20 -24 -25 -14 -51 14 -38 9 -41 -24 -15 l-27 21
-23 -21 c-31 -29 -36 -26 -23 14 9 32 8 37 -11 51 -31 21 -27 34 8 34 26 0 31
5 37 30 3 17 9 30 13 30 5 0 11 -13 15 -30z m-2440 -10 c6 -27 11 -30 43 -30
l37 -1 -29 -25 c-26 -23 -27 -28 -17 -51 15 -34 8 -40 -24 -19 -24 16 -27 16
-55 -4 -34 -24 -34 -24 -19 20 11 30 10 34 -17 56 l-29 23 38 1 c34 0 38 3 44
30 3 17 9 30 13 30 5 0 11 -13 15 -30z m188 -250 c6 -27 10 -30 44 -30 l38 0
-29 -23 c-25 -20 -28 -27 -21 -57 l7 -34 -27 18 c-27 18 -28 17 -56 -3 -31
-23 -35 -18 -19 24 9 24 7 30 -17 48 l-28 22 35 5 c28 4 36 11 44 37 10 38 21
35 29 -7z m2109 -40 l32 0 -26 -27 c-21 -23 -24 -33 -17 -52 12 -31 4 -39 -19
-18 -23 21 -36 21 -52 2 -21 -25 -32 -17 -25 17 6 27 3 35 -21 55 l-29 23 37
0 c32 0 38 4 48 33 l12 32 14 -32 c12 -27 20 -33 46 -33z m-1812 -200 c36 0
38 -12 5 -34 -21 -14 -23 -20 -15 -42 16 -41 12 -47 -18 -26 -27 20 -27 20
-55 0 l-28 -21 7 37 c5 31 3 40 -15 52 -30 21 -26 34 10 34 25 0 32 5 41 31
l11 31 13 -31 c11 -25 19 -31 44 -31z m1514 8 c4 -12 16 -18 38 -18 l33 -1
-26 -22 c-21 -19 -24 -27 -16 -51 12 -35 2 -44 -23 -21 -20 18 -22 18 -51 1
l-30 -18 6 34 c5 26 2 38 -14 52 -28 26 -26 33 8 28 26 -4 30 0 41 34 14 40
16 39 34 -18z m-1236 -166 c37 -4 40 -12 11 -30 -17 -11 -20 -20 -16 -48 6
-36 -3 -43 -23 -19 -7 8 -18 15 -25 15 -7 0 -18 -7 -25 -15 -20 -24 -30 -17
-23 15 4 24 0 36 -17 55 l-22 24 33 3 c28 3 35 8 43 37 l10 34 11 -34 c10 -28
17 -35 43 -37z m937 18 c6 -27 11 -30 43 -30 l37 -1 -28 -25 c-26 -22 -28 -27
-18 -56 15 -42 15 -42 -19 -18 l-30 21 -30 -21 c-34 -24 -34 -24 -19 18 10 29
8 34 -18 56 l-28 25 38 1 c34 0 38 3 44 30 3 17 9 30 13 30 5 0 11 -13 15 -30z
m-658 -80 c9 -25 17 -30 45 -30 l33 0 -30 -24 c-27 -22 -28 -26 -17 -51 16
-35 10 -41 -22 -20 -24 16 -28 16 -52 0 -32 -21 -38 -15 -22 19 11 25 9 29
-18 51 l-29 24 33 1 c28 0 36 5 45 30 6 17 14 30 17 30 3 0 11 -13 17 -30z
m363 -17 c0 -8 13 -13 38 -13 l37 -1 -28 -20 c-24 -18 -27 -26 -21 -55 l6 -34
-30 17 c-29 17 -31 17 -51 -1 -27 -24 -35 -17 -21 19 10 26 8 31 -17 51 l-28
23 33 1 c28 0 35 5 44 32 10 29 12 30 25 13 7 -11 13 -25 13 -32z"/>
<path d="M2433 2868 c-48 -61 -66 -349 -34 -547 12 -78 -12 -113 -99 -141
-117 -38 -311 -149 -405 -232 -76 -67 -81 -108 -11 -108 86 0 303 103 452 215
57 43 89 62 103 58 11 -3 27 -1 37 5 13 7 33 -3 93 -52 175 -141 491 -272 514
-213 25 67 -278 274 -490 333 -83 23 -88 37 -68 169 35 231 -1 525 -63 525
-11 0 -24 -6 -29 -12z"/>
<path d="M2970 3005 l0 -105 36 0 c88 0 149 71 124 144 -14 44 -52 66 -115 66
l-45 0 0 -105z"/>
<path d="M1320 3971 c0 -5 9 -52 20 -106 11 -53 17 -108 13 -123 l-6 -26 31
23 c41 29 48 41 23 41 -11 0 -23 9 -27 22 -12 39 58 77 85 45 7 -10 7 -17 0
-24 -6 -6 -7 -13 -2 -16 5 -3 27 10 48 28 37 32 38 34 16 35 -13 0 -61 25
-106 55 -86 57 -95 61 -95 46z m80 -91 c0 -10 -29 -34 -35 -28 -3 2 -8 19 -11
37 l-7 33 27 -17 c14 -9 26 -21 26 -25z"/>
<path d="M3679 3944 c-1 -5 -2 -18 -2 -29 -1 -11 -22 -46 -47 -77 -38 -49 -49
-57 -70 -52 -23 5 -22 2 15 -36 49 -51 84 -70 129 -70 28 0 41 7 65 37 35 42
39 77 14 125 -17 34 -102 117 -104 102z m75 -94 c15 -26 16 -36 6 -65 -22 -66
-97 -97 -134 -56 -16 17 -15 21 17 63 78 101 83 104 111 58z"/>
<path d="M1190 3866 c-76 -75 -72 -68 -68 -125 6 -70 46 -111 109 -111 54 0
99 42 99 94 0 19 -4 38 -10 41 -6 4 -10 -6 -10 -24 0 -43 -10 -61 -37 -72 -60
-23 -146 65 -123 126 12 33 35 41 73 27 43 -16 46 -7 11 28 -26 26 -31 28 -44
16z"/>
<path d="M3814 3701 c-115 -70 -24 -256 98 -200 36 16 68 70 68 113 0 30 -7
45 -34 72 -40 40 -83 45 -132 15z m120 -27 c26 -26 20 -70 -17 -110 -42 -46
-90 -51 -119 -13 -19 25 -19 28 -4 56 35 68 106 102 140 67z"/>
<path d="M1024 3688 c-11 -13 -26 -32 -34 -42 -14 -18 -13 -19 10 -13 20 5 36
-4 83 -47 53 -48 67 -73 51 -89 -4 -3 -16 0 -28 8 -30 22 -36 18 -23 -14 13
-34 -3 -81 -27 -81 -25 0 -135 89 -138 112 -3 19 -7 16 -31 -21 -28 -43 -30
-64 -3 -42 11 9 17 9 27 -1 8 -8 38 -31 67 -52 40 -29 51 -43 47 -57 -13 -40
15 -16 57 49 23 37 44 70 46 74 2 4 21 26 42 49 21 24 36 47 34 51 -3 5 -12 4
-20 -2 -11 -10 -26 0 -74 46 -42 40 -60 64 -57 76 7 24 -5 23 -29 -4z"/>
<path d="M4080 3462 c0 -13 -23 -37 -62 -66 -48 -36 -67 -44 -86 -39 -28 7
-28 8 21 -67 35 -53 54 -70 78 -70 25 0 49 27 49 57 0 22 3 24 24 19 29 -7 56
15 56 47 0 23 -52 121 -70 132 -5 3 -10 -3 -10 -13z m46 -77 c12 -47 -39 -75
-63 -36 -11 17 -9 23 15 40 35 26 40 26 48 -4z m-74 -60 c9 -21 8 -28 -7 -45
-22 -24 -38 -25 -59 -4 -23 22 -20 37 12 56 36 23 40 22 54 -7z"/>
<path d="M824 3382 c-15 -10 -74 -106 -74 -121 0 -7 7 -10 18 -7 27 9 145 -66
153 -95 5 -21 9 -17 37 38 37 72 40 112 12 138 -17 15 -24 16 -46 7 -33 -15
-34 -15 -34 6 0 34 -37 53 -66 34z m34 -44 c14 -14 15 -37 3 -56 -6 -11 -14
-10 -39 5 -30 18 -31 21 -16 41 17 25 34 28 52 10z m102 -58 c12 -22 -2 -60
-21 -60 -17 0 -59 32 -59 44 0 37 62 49 80 16z"/>
<path d="M4208 3265 c-4 -4 -4 -13 -2 -20 8 -20 -144 -89 -162 -74 -20 17 -18
-7 5 -56 12 -25 20 -33 20 -21 1 22 28 45 54 46 22 0 22 0 -9 -62 l-26 -53 20
-60 c21 -61 42 -84 42 -45 0 37 41 21 56 -22 11 -32 10 -38 -7 -54 -15 -14
-21 -14 -34 -4 -20 17 -20 -1 2 -60 9 -25 17 -64 18 -87 3 -56 28 -93 64 -93
35 0 57 24 66 72 13 69 54 91 68 37 4 -16 -2 -29 -23 -49 -35 -32 -32 -37 14
-32 l35 4 -5 51 c-6 60 -26 87 -64 87 -32 0 -60 -35 -60 -74 0 -33 -31 -69
-52 -61 -35 14 -29 76 8 98 25 14 15 29 -16 25 -52 -8 -36 23 50 98 44 38 80
72 80 76 0 8 -29 13 -139 25 -93 10 -103 22 -71 87 18 34 28 45 39 40 60 -25
97 -3 88 53 -7 43 -50 137 -59 128z m30 -107 c4 -35 -21 -54 -53 -40 -33 15
-32 38 3 56 35 19 46 16 50 -16z m42 -233 c0 -7 -41 -47 -45 -43 -1 2 -6 13
-9 26 -7 19 -4 22 23 22 17 0 31 -2 31 -5z"/>
<path d="M713 3195 c-6 -11 -14 -36 -17 -55 -6 -31 -5 -33 7 -17 18 22 25 22
95 -9 64 -27 78 -48 61 -90 -14 -37 -34 -39 -110 -9 -52 20 -69 32 -69 46 0
10 -4 19 -10 19 -5 0 -10 12 -10 28 0 38 -16 60 -31 45 -9 -9 -8 -20 5 -47 9
-20 21 -36 26 -36 4 0 1 -18 -7 -40 -16 -39 -11 -68 7 -40 7 11 19 9 72 -13
35 -15 73 -27 85 -27 24 0 60 40 69 77 13 51 -3 73 -81 108 -57 26 -74 39 -77
57 -3 22 -4 22 -15 3z"/>
<path d="M637 2920 c-25 -20 -65 -136 -51 -148 4 -4 9 -1 11 6 6 17 24 15 104
-9 54 -16 69 -25 69 -40 0 -10 5 -19 10 -19 6 0 10 9 10 20 0 10 5 31 12 45
12 27 3 49 -11 26 -6 -9 -18 -11 -41 -6 -31 7 -32 9 -26 44 11 70 -40 118 -87
81z m44 -40 c12 -7 19 -21 19 -39 0 -29 0 -29 -36 -18 -41 12 -52 30 -34 52
15 18 25 19 51 5z"/>
<path d="M566 2693 c-3 -10 -10 -49 -16 -87 -11 -69 -6 -95 11 -64 10 18 22
18 122 -4 42 -9 47 -13 47 -36 0 -31 -4 -37 -47 -76 l-33 -29 -20 26 c-24 30
-61 35 -80 12 -17 -21 -27 -165 -11 -165 6 0 11 5 11 10 0 6 37 10 90 10 73 0
90 -3 90 -15 0 -8 5 -15 10 -15 6 0 10 25 10 55 0 30 -4 55 -10 55 -5 0 -10
-7 -10 -15 0 -11 -11 -15 -40 -15 -22 0 -40 3 -40 8 0 4 22 23 50 42 43 31 49
40 50 71 0 19 7 77 16 129 17 101 15 110 -35 110 l-24 0 21 -23 c14 -15 22
-36 22 -60 0 -36 -1 -37 -38 -37 -21 0 -41 3 -44 6 -12 11 5 42 25 48 29 7 12
22 -35 29 -40 6 -48 -2 -23 -23 34 -28 12 -55 -36 -45 -29 6 -31 10 -25 39 3
17 15 37 26 45 27 18 25 31 -4 31 -15 0 -27 -7 -30 -17z m58 -315 c24 -33 20
-38 -29 -38 -37 0 -45 3 -45 18 0 43 49 56 74 20z"/>
<path d="M4400 2583 c0 -22 -1 -22 -122 -39 -39 -5 -49 -3 -54 10 -12 31 -21
6 -13 -36 4 -24 9 -47 9 -53 1 -5 5 -1 9 10 11 27 160 52 177 30 20 -26 25
-16 18 33 -7 50 -24 82 -24 45z"/>
<path d="M4416 2429 c-5 -12 -27 -19 -82 -24 -64 -6 -78 -4 -95 11 -19 17 -19
15 -19 -74 l0 -92 38 0 37 1 -27 20 c-21 15 -28 29 -28 53 0 32 2 34 46 40 90
12 121 8 129 -16 7 -21 8 -20 12 10 2 18 3 45 1 60 -3 21 -6 23 -12 11z"/>
<path d="M3955 1551 c-5 -18 -75 -120 -124 -183 -27 -34 -26 -40 2 -33 20 6
27 -2 56 -56 17 -33 30 -63 28 -65 -2 -2 -35 9 -73 24 -57 22 -69 30 -66 47 2
13 -31 -15 -89 -72 -51 -51 -97 -93 -104 -93 -19 0 -54 -44 -61 -77 -15 -77
50 -156 128 -156 54 0 98 45 98 98 0 19 -4 35 -10 35 -5 0 -10 -13 -10 -30 0
-34 -30 -70 -60 -70 -74 0 -143 113 -100 164 16 20 49 20 77 1 31 -22 41 1 13
30 -21 22 -22 25 -6 31 13 5 35 -10 84 -59 54 -55 63 -68 53 -80 -6 -9 -8 -18
-3 -21 5 -3 26 12 46 33 22 22 33 41 28 45 -6 3 -14 1 -18 -5 -6 -11 -144 116
-144 133 0 4 10 14 23 23 21 13 31 12 131 -26 59 -23 110 -38 114 -34 4 3 -17
51 -46 105 -78 148 -68 170 46 93 51 -35 71 -55 74 -73 3 -23 5 -22 36 22 l33
48 -28 -6 c-22 -4 -42 5 -95 43 -69 49 -82 74 -47 96 22 14 183 -78 175 -99
-3 -8 -1 -14 3 -14 5 0 30 35 55 78 l45 77 -22 17 c-29 23 -51 23 -42 1 15
-34 15 -68 1 -86 -14 -18 -16 -17 -57 4 -76 38 -119 71 -119 90 0 25 -17 24
-25 0z"/>
<path d="M1025 1491 c4 -15 -9 -30 -66 -71 -46 -34 -78 -50 -90 -47 -27 7 -23
-13 11 -53 l29 -35 1 26 c0 17 9 33 26 43 24 17 26 16 60 -13 41 -36 62 -38
98 -10 35 28 33 46 -15 118 -40 59 -66 80 -54 42z m51 -76 c12 -48 -47 -85
-77 -49 -12 14 -9 20 21 45 42 35 48 36 56 4z"/>
<path d="M1100 1258 c-41 -17 -94 -31 -118 -31 -37 0 -41 -2 -28 -16 7 -9 21
-26 31 -38 10 -12 22 -20 27 -17 5 3 3 12 -3 21 -10 12 -10 16 2 24 44 28 102
-20 81 -66 -8 -17 -17 -22 -31 -18 -28 7 -26 0 10 -42 35 -39 54 -46 44 -15
-4 14 10 51 44 117 28 53 51 100 51 104 0 15 -32 8 -110 -23z m35 -38 c-18
-35 -30 -38 -45 -11 -8 16 -6 21 18 29 42 16 44 14 27 -18z"/>
<path d="M1229 1194 l-24 -27 38 7 c24 5 44 3 53 -4 11 -10 3 -24 -48 -82 -52
-58 -66 -68 -86 -63 -34 9 -24 -11 27 -54 l44 -36 -7 30 c-5 26 1 38 55 98 51
56 64 65 76 55 10 -8 13 -22 8 -45 -3 -18 -2 -33 2 -33 10 0 43 37 43 49 0 9
-138 131 -149 131 -4 0 -18 -12 -32 -26z"/>
<path d="M1424 1064 c7 -19 -5 -44 -61 -116 -29 -38 -49 -55 -58 -52 -28 11
-14 -11 24 -38 37 -27 62 -28 40 -2 -8 10 -5 21 11 44 12 16 26 30 31 30 5 0
9 -31 9 -69 0 -63 2 -70 26 -86 30 -20 40 -15 25 13 -6 12 -11 43 -11 71 0 51
0 51 33 51 40 0 57 15 57 50 0 27 -27 58 -87 98 -37 26 -47 28 -39 6z m74 -56
c37 -37 -22 -97 -67 -69 -11 7 -10 15 8 45 24 38 39 44 59 24z"/>
<path d="M1585 949 c5 -14 -5 -47 -29 -99 -33 -69 -35 -80 -24 -104 20 -46 98
-72 137 -47 8 5 30 40 50 78 29 55 41 68 60 68 45 0 47 -26 11 -114 -26 -63
-38 -81 -54 -81 -12 0 -16 -4 -10 -9 10 -11 165 -73 169 -69 1 2 10 18 19 36
18 36 6 44 -25 16 -21 -19 -89 -12 -89 9 0 7 14 47 31 90 22 53 39 81 53 87
19 7 18 9 -14 23 -116 52 -154 67 -157 63 -3 -2 1 -13 8 -23 10 -17 6 -30 -22
-83 -39 -72 -55 -86 -93 -76 -50 12 -52 43 -8 127 27 52 44 73 56 71 30 -5 16
16 -24 37 -50 26 -53 26 -45 0z"/>
<path d="M3328 945 c-2 -3 -1 -28 3 -57 18 -117 22 -188 11 -188 -6 0 -14 9
-17 20 -9 28 -25 25 -25 -4 0 -26 -13 -40 -53 -55 -24 -9 -28 -8 -42 19 -8 16
-15 35 -15 43 0 23 31 29 51 11 16 -15 19 -15 19 -2 0 21 -21 78 -29 78 -3 0
-11 -10 -16 -22 -14 -32 -39 -34 -53 -3 -18 39 -15 52 17 63 22 8 34 7 48 -3
10 -8 21 -15 26 -15 11 0 8 24 -6 44 -12 16 -18 15 -95 -15 -79 -31 -102 -49
-63 -49 18 0 38 -36 72 -133 13 -36 12 -40 -6 -53 -26 -19 -26 -19 -79 22 -44
33 -46 37 -32 53 17 18 21 58 8 77 -14 22 -51 24 -116 8 -66 -16 -81 -28 -48
-36 25 -7 70 -172 52 -193 -15 -19 -2 -20 53 -4 38 10 51 29 19 29 -21 0 -47
66 -31 76 5 3 32 -13 59 -36 51 -42 60 -44 115 -20 11 5 56 23 100 40 141 56
196 90 146 90 -17 0 -31 18 -31 40 0 4 14 17 32 28 30 19 33 19 54 4 16 -13
20 -21 13 -34 -13 -24 0 -23 50 5 41 23 44 37 10 37 -10 0 -56 32 -103 70 -87
72 -89 73 -98 65z m81 -102 c8 -5 -22 -33 -35 -33 -9 0 -14 12 -14 37 l0 36
23 -19 c12 -10 24 -20 26 -21z m-399 -89 c18 -21 1 -68 -26 -72 -16 -2 -23 5
-32 34 -6 21 -9 41 -6 46 9 14 51 9 64 -8z"/>
<path d="M2766 805 c-14 -15 -26 -35 -26 -45 0 -11 -13 -20 -37 -27 -33 -9
-35 -12 -17 -18 18 -6 24 -22 38 -97 14 -74 15 -93 4 -100 -28 -18 -45 1 -97
104 -30 59 -58 105 -62 102 -5 -3 -22 -51 -40 -107 -20 -66 -38 -108 -52 -119
-22 -17 -21 -18 31 -18 51 0 70 13 33 23 -14 3 -17 11 -14 30 7 34 70 49 90
21 15 -21 17 -44 3 -44 -5 0 -10 -4 -10 -10 0 -5 17 -10 38 -10 41 0 249 34
257 42 7 7 -6 68 -14 68 -4 0 -11 -13 -17 -28 -8 -21 -20 -31 -45 -36 -40 -8
-59 11 -59 56 0 23 4 28 24 28 13 0 27 -7 30 -16 12 -32 24 -3 14 38 -11 52
-17 59 -24 30 -6 -19 -39 -40 -49 -30 -2 2 -7 23 -11 46 l-7 42 42 0 c28 0 44
-5 47 -15 10 -26 24 -16 24 16 l0 31 -57 -6 -58 -7 35 30 c27 23 32 33 23 42
-9 9 -17 5 -37 -16z m-179 -184 c11 -29 3 -41 -28 -41 -10 0 -12 31 -3 54 9
24 18 20 31 -13z"/>
<path d="M1970 775 c13 -15 11 -45 -11 -145 -8 -39 -15 -50 -30 -50 -37 0 -19
-18 28 -28 53 -12 61 -9 44 11 -7 10 -9 27 -3 53 7 36 10 39 37 36 45 -6 75
-20 71 -34 -3 -7 -7 -25 -10 -39 -4 -16 -15 -29 -28 -32 -33 -9 -17 -18 64
-33 86 -17 118 -18 118 -4 0 6 -7 10 -15 10 -18 0 -18 2 -3 35 7 16 17 24 26
20 7 -3 24 -5 37 -5 31 0 45 -49 19 -63 -17 -10 -17 -11 1 -18 28 -11 85 -11
85 0 0 5 -6 11 -13 14 -7 3 -21 40 -31 83 -24 107 -36 144 -46 144 -5 0 -32
-43 -61 -95 -55 -102 -75 -122 -104 -102 -16 12 -16 17 0 83 22 93 31 114 52
114 35 0 -3 18 -52 26 -49 7 -50 6 -33 -13 22 -24 11 -78 -15 -77 -83 4 -90 9
-75 57 6 20 17 37 25 37 7 0 13 4 13 9 0 9 -47 21 -82 21 -17 0 -18 -3 -8 -15z
m339 -167 c1 -19 -16 -23 -38 -9 -12 8 -12 14 4 37 17 26 19 27 26 9 4 -11 8
-28 8 -37z"/>
</g>
</svg>
